<?xml version="1.0" standalone="no"?>
<!DOCTYPE svg PUBLIC "-//W3C//DTD SVG 20010904//EN"
 "http://www.w3.org/TR/2001/REC-SVG-20010904/DTD/svg10.dtd">
<svg version="1.0" xmlns="http://www.w3.org/2000/svg"
 width="549.000000pt" height="549.000000pt" viewBox="0 0 549.000000 549.000000"
 preserveAspectRatio="xMidYMid meet">
<metadata>
Created by potrace 1.14, written by Peter Selinger 2001-2017
</metadata>
<g transform="translate(0.000000,549.000000) scale(0.100000,-0.100000)"
fill="#000000" stroke="none">
<path d="M760 5020 l0 -50 83 0 c118 0 203 -17 270 -52 93 -50 125 -105 152
-262 13 -75 15 -223 15 -935 0 -1234 16 -1445 126 -1679 135 -290 361 -494
648 -587 322 -104 814 -114 1161 -25 345 89 648 347 766 655 39 99 73 251 95
415 14 106 18 280 23 1145 8 1129 4 1070 74 1167 75 106 164 148 335 156 l112
5 0 48 0 49 -645 0 -645 0 0 -50 0 -50 83 0 c238 0 363 -65 410 -214 l22 -71
0 -1045 c0 -1099 -1 -1127 -46 -1335 -26 -117 -100 -271 -169 -347 -103 -115
-294 -236 -462 -292 -232 -78 -531 -87 -766 -22 -134 37 -303 147 -388 254
-97 123 -144 257 -186 527 -23 149 -23 155 -23 1185 0 1092 0 1103 45 1190 59
114 187 170 393 170 l77 0 0 50 0 50 -780 0 -780 0 0 -50z"/>
<path d="M2645 4057 c-110 -29 -217 -122 -254 -223 -28 -74 -28 -175 0 -250
15 -40 39 -74 83 -118 63 -64 110 -96 356 -237 202 -116 259 -174 276 -276 15
-98 -61 -206 -167 -237 -155 -46 -361 20 -442 143 -29 44 -63 136 -73 200 -5
31 -11 41 -25 41 -19 0 -19 -10 -17 -237 3 -203 5 -238 18 -238 8 0 16 9 18
20 6 31 33 55 62 55 14 0 71 -13 126 -30 180 -53 267 -59 390 -25 105 30 206
110 253 202 45 89 46 226 2 317 -47 97 -122 155 -390 304 -169 93 -257 155
-297 207 -40 52 -45 142 -12 200 53 90 166 138 276 116 76 -15 151 -52 202
-97 50 -45 101 -144 120 -233 9 -44 17 -61 29 -61 14 0 16 25 16 235 0 220 -1
235 -18 235 -11 0 -22 -12 -29 -30 -18 -52 -54 -52 -193 0 -74 28 -233 36
-310 17z"/>
<path d="M2370 1331 c0 -4 35 -11 78 -14 82 -5 135 -24 146 -52 11 -30 7 -665
-5 -687 -16 -30 -71 -48 -149 -48 -56 0 -70 -3 -70 -15 0 -13 43 -15 347 -13
245 2 347 6 350 14 3 8 -24 13 -79 16 -93 5 -142 25 -152 60 -10 38 -7 634 4
662 15 42 52 58 145 64 47 2 85 9 85 13 0 5 -157 9 -350 9 -192 0 -350 -4
-350 -9z"/>
</g>
</svg>
